<?xml version="1.0" encoding="UTF-8"?> <svg xmlns="http://www.w3.org/2000/svg" width="3413" height="504" viewBox="0 0 3413 504" fill="none"><g clip-path="url(#clip0_547_283)"><path d="M573.407 399.947L479.79 500.335C477.761 502.51 475.308 504.247 472.582 505.437C469.855 506.627 466.914 507.245 463.939 507.253H20.1348C18.0227 507.242 15.9594 506.617 14.1956 505.456C12.4317 504.293 11.0433 502.644 10.199 500.708C9.35472 498.772 9.09093 496.632 9.43967 494.548C9.78842 492.465 10.7347 490.528 12.1635 488.972L105.666 388.584C107.695 386.409 110.148 384.672 112.875 383.482C115.601 382.293 118.542 381.674 121.517 381.666H565.321C567.457 381.623 569.557 382.213 571.358 383.36C573.16 384.508 574.582 386.163 575.446 388.116C576.31 390.069 576.577 392.235 576.214 394.34C575.852 396.445 574.875 398.396 573.407 399.947ZM479.79 197.729C477.753 195.564 475.298 193.835 472.573 192.645C469.849 191.456 466.912 190.832 463.939 190.81H20.1348C18.0183 190.811 15.948 191.43 14.1777 192.59C12.4074 193.75 11.0139 195.402 10.1678 197.342C9.32178 199.282 9.05995 201.428 9.41442 203.514C9.76889 205.601 10.7243 207.54 12.1635 209.092L105.666 309.548C107.703 311.713 110.158 313.442 112.883 314.631C115.607 315.82 118.544 316.445 121.517 316.467H565.321C567.43 316.446 569.487 315.815 571.244 314.65C573.001 313.485 574.382 311.835 575.221 309.9C576.06 307.966 576.319 305.829 575.969 303.75C575.619 301.671 574.673 299.738 573.247 298.185L479.79 197.729ZM20.1348 125.611H463.939C466.914 125.602 469.855 124.984 472.582 123.794C475.308 122.604 477.761 120.868 479.79 118.692L573.407 18.2818C574.496 17.1173 575.316 15.7276 575.809 14.2111C576.302 12.6947 576.455 11.0884 576.258 9.5061C576.062 7.92376 575.52 6.40398 574.671 5.0543C573.822 3.70462 572.687 2.55801 571.346 1.69561C569.55 0.546376 567.453 -0.043649 565.321 0.000338929H121.517C118.542 0.00877819 115.601 0.627076 112.875 1.81704C110.148 3.00701 107.695 4.74337 105.666 6.91888L12.1635 107.329C10.7243 108.882 9.76889 110.82 9.41442 112.907C9.05995 114.994 9.32178 117.139 10.1678 119.079C11.0139 121.019 12.4074 122.671 14.1777 123.831C15.948 124.991 18.0183 125.61 20.1348 125.611Z" fill="white"></path><path d="M1114.45 214.544H877.027V136.309H1176.18V58.1433H876.202C855.508 58.0336 835.618 66.1487 820.906 80.704C806.194 95.2592 797.864 115.063 797.749 135.759V215.025C797.791 225.281 799.854 235.429 803.821 244.887C807.788 254.345 813.58 262.929 820.867 270.146C828.154 277.363 836.791 283.073 846.286 286.949C855.781 290.824 865.947 292.79 876.202 292.732H1113.97V370.944H803.43V449.133H1114.45C1135.14 449.224 1155.02 441.103 1169.72 426.552C1184.43 412.001 1192.77 392.208 1192.9 371.517V292.251C1192.86 281.995 1190.8 271.847 1186.83 262.389C1182.86 252.931 1177.07 244.347 1169.78 237.13C1162.5 229.913 1153.86 224.203 1144.36 220.327C1134.87 216.452 1124.7 214.486 1114.45 214.544ZM1574.4 58.1433H1336.11C1325.85 58.0618 1315.67 60.006 1306.16 63.8648C1296.64 67.7235 1287.99 73.4209 1280.68 80.6306C1273.37 87.8404 1267.56 96.4208 1263.57 105.881C1259.59 115.341 1257.51 125.494 1257.45 135.759V371.517C1257.5 381.786 1259.57 391.944 1263.56 401.41C1267.54 410.875 1273.35 419.46 1280.66 426.674C1287.97 433.887 1296.63 439.586 1306.14 443.444C1315.66 447.302 1325.84 449.243 1336.11 449.156H1574.45C1584.7 449.21 1594.85 447.245 1604.34 443.372C1613.83 439.5 1622.47 433.796 1629.75 426.587C1637.04 419.377 1642.83 410.803 1646.8 401.354C1650.77 391.905 1652.85 381.767 1652.9 371.517V135.759C1652.84 120.319 1648.19 105.246 1639.54 92.4539C1630.89 79.6622 1618.64 69.7291 1604.34 63.9164C1594.85 60.044 1584.69 58.0821 1574.45 58.1433H1574.4ZM1573.83 370.944H1336.66V136.355H1573.74L1573.83 370.944ZM2409.17 58.1433H2176.72C2156.02 58.0336 2136.13 66.1487 2121.42 80.704C2106.71 95.2592 2098.38 115.063 2098.26 135.759V449.156H2177.52V320.704H2408.91V449.156H2488.17V135.759C2488.08 120.257 2483.38 105.132 2474.66 92.3094C2465.95 79.4872 2453.62 69.5478 2439.24 63.756C2429.69 59.9069 2419.47 57.9914 2409.17 58.1204V58.1433ZM2408.59 242.493H2177.2V136.332H2408.59V242.493ZM3334.55 58.1433H3102.07C3091.83 58.086 3081.67 60.0483 3072.18 63.9181C3062.69 67.788 3054.06 73.4896 3046.77 80.6972C3039.49 87.9049 3033.69 96.4773 3029.72 105.925C3025.75 115.373 3023.67 125.51 3023.62 135.759V449.156H3102.88V320.704H3333.75V449.156H3413V135.759C3412.85 115.071 3404.53 95.2812 3389.84 80.7087C3382.56 73.4938 3373.93 67.7867 3364.44 63.9144C3354.95 60.0422 3344.8 58.081 3334.55 58.1433ZM3333.75 242.493H3102.35V136.332H3333.75V242.493ZM2874.11 370.944H2842.41L2729.07 90.9033C2725.22 81.2207 2718.54 72.9204 2709.91 67.0789C2701.28 61.2374 2691.09 58.1243 2680.67 58.1433H2610.35C2603.52 58.1041 2596.74 59.4127 2590.41 61.9942C2584.08 64.5758 2578.33 68.3796 2573.47 73.1882C2568.61 77.9969 2564.75 83.7159 2562.11 90.0183C2559.46 96.3207 2558.09 103.083 2558.06 109.918V449.156H2637.31V136.309H2669.01L2782.28 416.373C2786.23 426.018 2792.96 434.266 2801.62 440.062C2810.28 445.857 2820.47 448.936 2830.89 448.904H2901.21C2908.04 448.943 2914.82 447.634 2921.15 445.053C2927.48 442.471 2933.23 438.667 2938.09 433.859C2942.95 429.05 2946.81 423.331 2949.45 417.029C2952.1 410.726 2953.48 403.964 2953.51 397.129V58.1433H2874.11V370.944ZM1802.11 58.1433H1722.86V371.54C1722.91 381.815 1724.99 391.978 1728.98 401.447C1732.97 410.915 1738.79 419.502 1746.1 426.715C1753.42 433.927 1762.09 439.622 1771.62 443.473C1781.14 447.324 1791.33 449.255 1801.61 449.156H2039.33V370.944H1802.13L1802.11 58.1433Z" fill="white"></path></g><defs><clipPath id="clip0_547_283"><rect width="3413" height="504" fill="white"></rect></clipPath></defs></svg> 